<svg xmlns="http://www.w3.org/2000/svg" version="1.1" xmlns:xlink="http://www.w3.org/1999/xlink" xmlns:svgjs="http://svgjs.dev/svgjs" width="1000" height="1000" viewBox="0 0 1000 1000"><g transform="matrix(1,0,0,1,-0.14221556886212738,-0.14221556886229791)"><svg viewBox="0 0 334 334" data-background-color="#ffffff" preserveAspectRatio="xMidYMid meet" height="1000" width="1000" xmlns="http://www.w3.org/2000/svg" xmlns:xlink="http://www.w3.org/1999/xlink"><g id="tight-bounds" transform="matrix(1,0,0,1,0.04749999999998522,0.04750000000001364)"><svg viewBox="0 0 333.90454557049503 333.90454557049503" height="333.90454557049503" width="333.90454557049503"><g><svg></svg></g><g><svg viewBox="0 0 333.90454557049503 333.90454557049503" height="333.90454557049503" width="333.90454557049503"><g><path d="M0 166.952c0-92.205 74.747-166.952 166.952-166.952 92.205 0 166.952 74.747 166.953 166.952 0 92.205-74.747 166.952-166.953 166.953-92.205 0-166.952-74.747-166.952-166.953zM166.952 316.63c82.665 0 149.677-67.013 149.678-149.678 0-82.665-67.013-149.677-149.678-149.677-82.665 0-149.677 67.013-149.677 149.677 0 82.665 67.013 149.677 149.677 149.678z" data-fill-palette-color="tertiary" fill="#ee3e38" stroke="transparent"></path><ellipse rx="160.27418187383762" ry="160.27418187383762" cx="166.95227278524752" cy="166.95227278524752" fill="#ee3e38" stroke="transparent" stroke-width="0" fill-opacity="1" data-fill-palette-color="tertiary"></ellipse></g><g transform="matrix(1,0,0,1,98.01228432162779,71.17305217166896)"><svg viewBox="0 0 137.87997692723945 191.55844122715712" height="191.55844122715712" width="137.87997692723945"><g><svg viewBox="0 0 137.87997692723945 191.55844122715712" height="191.55844122715712" width="137.87997692723945"><g><svg viewBox="0 0 137.87997692723945 191.55844122715712" height="191.55844122715712" width="137.87997692723945"><g><svg viewBox="0 0 137.87997692723945 191.55844122715712" height="191.55844122715712" width="137.87997692723945"><g id="textblocktransform"><svg viewBox="0 0 137.87997692723945 191.55844122715712" height="191.55844122715712" width="137.87997692723945" id="textblock"><g><svg viewBox="0 0 137.87997692723945 191.55844122715712" height="191.55844122715712" width="137.87997692723945"><g transform="matrix(1,0,0,1,0,0)"><svg width="137.87997692723945" viewBox="1.5499999523162842 -31.3799991607666 22.59000015258789 31.3799991607666" height="191.55844122715712" data-palette-color="#ffffff"><path d="M22.3 0L3.97 0Q2.87 0 2.24-0.46L2.24-0.46Q1.55-1.15 1.55-1.9 1.55-2.64 1.95-3.33L1.95-3.33 19.2-28.1 3.33-28.1Q2.59-28.1 2.16-28.62 1.72-29.14 1.72-29.74 1.72-30.34 2.13-30.86 2.53-31.38 3.33-31.38L3.33-31.38 22.07-31.38Q22.99-31.38 23.56-30.86 24.14-30.34 24.14-29.77L24.14-29.77Q24.14-28.74 23.62-28.05L23.62-28.05 6.32-3.22 22.3-3.22Q23.22-3.22 23.56-2.7 23.91-2.18 23.91-1.55 23.91-0.92 23.51-0.46 23.1 0 22.3 0L22.3 0Z" opacity="1" transform="matrix(1,0,0,1,0,0)" fill="#ffffff" class="wordmark-text-0" data-fill-palette-color="quaternary" id="text-0"></path></svg></g></svg></g></svg></g></svg></g><g></g></svg></g></svg></g></svg></g></svg></g><defs></defs></svg><rect width="333.90454557049503" height="333.90454557049503" fill="none" stroke="none" visibility="hidden"></rect></g></svg></g></svg>